<svg xmlns="http://www.w3.org/2000/svg" viewBox="-8 -8 116 116"><path fill="currentColor" stroke="currentColor" stroke-width="4" stroke-linejoin="round" d="M6.7 99.1C4.1 98.0 3.3 97.0 3.3 94.5C3.3 90.0 8.5 79.3 13.1 74.1C15.7 71.2 19.2 66.8 23.5 61.2C25.5 58.8 29.0 54.6 31.5 52.1L36.1 47.4L36.1 38.2L36.2 28.9L37.0 25.4C37.9 21.0 39.0 19.2 41.2 18.1L43.0 17.1L44.6 14.7C45.5 13.3 46.7 10.9 47.4 9.3L48.6 6.5L51.1 5.0C53.2 3.7 56.8 2.3 61.0 1.2C61.5 1.1 63.5 0.8 65.4 0.5L68.9 0.0L72.1 0.4L75.3 0.9L78.4 2.5C85.7 6.3 86.7 7.0 89.7 9.8L92.7 12.7L94.3 16.0L95.9 19.4L95.8 24.4C95.7 31.0 94.9 36.1 93.5 38.8C93.0 40.0 92.2 41.8 91.9 42.8C91.5 43.9 90.6 45.5 89.8 46.5C88.9 47.4 87.0 49.9 85.4 51.9C81.9 56.6 79.0 58.6 72.2 61.9L66.7 64.4L57.2 64.4L47.6 64.4L45.2 67.1C43.9 68.7 42.2 70.9 41.3 72.2C40.4 73.4 39.4 74.8 38.9 75.3C33.1 81.9 30.7 84.6 30.0 85.6C28.5 87.8 24.2 92.0 21.8 93.5C15.4 97.7 11.9 99.6 10.4 99.8L8.9 100.0L6.7 99.1ZM12.6 94.7C13.7 94.1 15.0 93.3 15.6 92.8C16.1 92.3 17.5 91.5 18.6 90.9C21.1 89.6 27.3 83.9 27.3 83.0C27.3 82.6 28.8 80.7 30.5 78.9C32.3 76.9 34.5 74.3 35.4 73.0C37.2 70.4 37.8 69.7 41.5 65.4C42.9 63.8 44.2 62.0 44.3 61.4L44.6 60.3L42.7 58.2C41.6 57.0 40.2 55.0 39.5 53.6C38.8 52.3 38.0 51.2 37.7 51.2C36.4 51.2 23.7 65.3 20.5 70.3C19.6 71.8 18.2 73.5 17.5 74.2C16.7 74.8 15.6 76.2 15.0 77.3C14.3 78.3 13.3 79.7 12.7 80.4C12.1 81.1 10.7 83.3 9.6 85.5L7.7 89.3L7.7 92.2L7.7 95.1L8.2 95.4C9.4 95.8 10.6 95.7 12.6 94.7ZM67.3 59.6C68.6 59.1 71.1 58.0 73.0 57.2L76.4 55.6L79.7 52.3C83.8 48.2 87.9 42.6 89.4 39.2C90.6 36.4 91.8 28.8 91.9 24.3L91.9 21.5L90.9 19.6C90.4 18.6 90.0 17.5 90.0 17.1C90.0 16.7 88.9 14.9 87.6 13.1L85.3 9.8L82.2 8.2C80.6 7.3 78.1 6.0 76.8 5.3L74.4 4.1L69.9 3.9L65.3 3.7L61.4 4.5C59.2 4.9 56.4 5.8 55.1 6.4C52.7 7.6 49.8 10.7 49.8 11.9C49.8 12.5 45.1 20.6 44.0 21.9C43.7 22.2 43.0 22.5 42.4 22.5L41.2 22.5L41.0 23.5C40.8 24.2 40.4 27.7 40.1 31.3L39.7 38.0L40.1 41.4C41.1 47.5 41.4 49.0 43.0 51.7C44.7 54.8 48.4 58.7 50.1 59.4C53.9 60.9 63.2 61.0 67.3 59.6ZM56.7 50.6C56.1 50.3 54.2 48.7 52.4 47.1L49.2 44.3L48.2 42.1L47.2 40.0L47.3 35.4C47.4 28.3 48.0 26.2 50.5 23.9C51.2 23.3 52.2 21.6 52.9 20.3L54.0 17.8L56.6 16.1C58.0 15.2 60.9 13.8 63.0 13.1L66.7 11.8L71.2 11.9L75.8 12.0L76.8 12.7C78.6 13.8 82.3 17.8 82.8 19.0C83.1 19.7 83.3 22.4 83.3 25.2L83.3 30.3L81.3 35.1C80.2 37.8 78.8 40.7 78.0 41.6C77.3 42.5 76.5 43.8 76.1 44.4C75.8 45.0 73.7 46.7 71.4 48.2L67.2 51.0L62.4 51.1L57.7 51.2L56.7 50.6ZM64.9 46.9C66.0 46.7 68.1 45.8 69.5 44.8L72.2 43.1L74.4 39.7C78.9 32.9 80.5 25.8 78.6 20.1L77.8 17.6L76.1 16.5L74.4 15.3L70.7 15.3L67.0 15.3L63.1 16.6L59.1 17.8L57.5 19.3C56.7 20.1 56.0 21.1 56.0 21.6C56.0 22.1 55.4 23.2 54.6 24.0C52.4 26.5 51.3 29.2 51.0 32.6L50.6 35.8L51.2 38.3L51.8 40.7L55.1 43.7C59.0 47.4 60.4 47.8 64.9 46.9ZM58.5 31.5C57.9 30.9 57.2 29.6 56.8 28.6L56.1 26.9L56.4 25.3C57.4 21.1 60.5 18.7 64.8 18.7L66.4 18.7L67.8 20.5L69.4 22.4L69.4 24.4C69.4 26.7 68.8 28.3 67.4 29.7C65.9 31.0 62.4 32.5 60.8 32.5L59.5 32.5L58.5 31.5ZM63.8 27.6L65.2 26.5L65.3 24.6L65.3 22.7L64.1 22.6C63.4 22.5 62.2 22.9 61.3 23.4L59.8 24.4L59.8 26.0C59.8 28.8 61.5 29.5 63.8 27.6Z"/></svg>